<?xml version="1.0" encoding="utf-8"?>
<!-- Generator: Adobe Illustrator 22.0.1, SVG Export Plug-In . SVG Version: 6.00 Build 0)  -->
<svg version="1.1" id="Layer_1" xmlns="http://www.w3.org/2000/svg" xmlns:xlink="http://www.w3.org/1999/xlink" x="0px" y="0px"
	 viewBox="0 0 550 511.7" style="enable-background:new 0 0 550 511.7;" xml:space="preserve">
<style type="text/css">
	.st0{fill:#11559C;}
	.st1{fill:#FDD400;}
	.st2{fill:#FFFFFF;}
	.st3{enable-background:new    ;}
	.st4{fill:#12100B;}
	.st5{fill:#BEBBBA;}
</style>
<path class="st0" d="M455.9,217.5c-6.6,0.4-14.7,0.9-22.8,1.3c0.9-10.3,1.7-21.8,2.2-33.8l18.3-28.2l12.7-5.7c23.5-9.8,22.2-23-6-23
	l-56.3,0l69.6-91.4c3-3.9,2.2-9.5-1.7-12.5c-3.9-3-9.5-2.2-12.5,1.7L387,121c-0.1-0.1-0.2-0.2-0.3-0.3C375,109,375,93.9,375,93.8
	l0-3.9h-53.8h0h-22.7h-18.4h-53.6h0h-53.8l0,3.9c0,0.2,0,15.2-11.7,26.9c-0.1,0.1-0.2,0.2-0.3,0.3L88.4,25.9
	c-3-3.9-8.6-4.7-12.5-1.7c-3.9,3-4.7,8.6-1.7,12.5l71.4,93.8c-8.2,3.2-18,4.7-29.5,4.6l-3.7,0l-0.2,3.7c0,0.2-0.4,6.5-0.3,17.2
	c0,13.2,0.6,26.2,1.5,38.4L80,200c-72.9,55.3-24.2,115.7,26.8,105.7l0,0c0,0,0.6-0.1,1.8-0.4c0.1,0,0.2,0,0.3-0.1
	c0.4-0.1,0.8-0.2,1.3-0.3c1.3-0.3,2.6-0.7,3.8-1.1c1.4-0.4,3-1,4.8-1.6c2.2-0.8,7-2.8,13.4-5.5c0.8,2.3,1.7,4.5,2.6,6.8c0,0,0,0,0,0
	c48.6-23,93.3-33.4,138.2-33.4c12.9,0,25.9,0.9,39.2,2.8c-1.9,3.7-3.4,6.8-4.2,8.4c-11.4-1.5-23-2.3-35-2.3
	c-51,0-97.2,14.6-135,32.6c8.1,19.4,17.2,37.8,24,49.6c25.7-12.6,63.5-26,110.4-26c48.4,0,87.1,14.3,112.8,27.3
	c6.7-11.6,16.1-30.2,24.4-50c-24-11.6-51.5-21.8-81.5-27.8c3.9-2,8.2-4.2,12.3-6.3c23.7,5.7,47.9,14.3,72.5,25.9
	c1.7-4.3,3.3-8.6,4.8-12.8l10.9,4.3l-7.3-14.7c2.4-7,4-12.4,6.9-25.2c0.8-3.6,1.7-8.7,2.5-14.7l28-10.4l42.2-15.7L455.9,217.5z
	 M453.4,156.8C453.4,156.8,453.4,156.8,453.4,156.8L453.4,156.8L453.4,156.8z M77.8,296.8c-12.6-4.6-20.9-12-24.6-22.2
	c-1.6-4.3-2.2-8.7-2.2-13c0-10,3.4-18.9,5.9-23.3c7.8-13.4,16.7-21.3,23.8-27.6c0,0,1.5-1.3,1.9-1.7c0.6-0.1,37.8-6.9,45-8.2
	c-11,6.8-42.2,27.5-43.4,44c0,0.4,0,0.7,0,1.1c0,4.1,1.9,7.7,5.6,10.6c2.9,2.3,6.6,3.1,10.8,2.5c6.5-1.1,20-6.9,37.5-34.2l40.5-61.9
	c0,0-43.2,4-49.2,4.6c4.2-4.2,30.6-30.6,31.2-31.2c0.6,0,274.3,0,305.6,0c-26.8,2.5-123.9,11.5-123.9,11.5l-0.1,0
	c-8.5,1.5-14.2,4.7-16,9.2c-0.4,1-0.6,1.9-0.6,2.9c0,1.9,0.7,3.8,2,5.6l0,0l1.8,2c1.8,1.9,3.4,3.5,3.4,6.7l-0.1,1.2
	c-0.6,5.7-4.8,10.7-11.9,14.5c-12.3,6.5-29.6,7.6-37.2,4.3c1.4-2,8.9-13.1,9.9-14.6c4.1,1.8,11.7,2.2,16,0.1c2.8-1.4,4.3-3,4.6-4.7
	l0.1-0.6c0-1.6-0.9-3.3-2.8-5.2l-2.1-2c-2.5-2.3-4.1-3.9-4.1-6.2c0-0.7,0.1-1.4,0.4-2.2c0.7-2.1,3.2-4.1,7.2-5.8l-0.6-2.4l-11.2,1
	c0,0-28.4,43.4-28.9,44.1c-0.7,0.2-16.3,4.7-21.1,6.1c3.3-5,31.7-48.5,31.7-48.5l-38,3.5l-8.5,13c0,0,21.5-2.6,25.8-3.2
	c-1.9,2.8-5.6,8.6-6.1,9.3c-1,0.2-26.9,4.9-26.9,4.9l-11,16.8c0,0,23.2-5.5,28.1-6.6c-2.5,3.7-9.4,14.4-9.8,15.1
	c-0.8,0.2-48.6,14-54.4,15.7c3.4-5.2,41.2-62.9,41.2-62.9l-11.9,1.1l-39.8,60.8L140,268.1C139.7,268.6,114.1,309.9,77.8,296.8z
	 M139.9,284.9c0.5-0.6,1-1.1,1.4-1.6c-0.8,0.4-1.4,0.6-1.7,0.7c5.5-6,8.7-11.1,9.1-11.8c0,0,0,0-0.1,0c0.2-0.2,0.3-0.4,0.4-0.5
	c0,0,24.7-37.2,25.1-37.9c0.9-0.2,105.7-30.2,106.4-30.4c0.2,0.1,0.4,0.1,0.6,0.2c0.4-0.1,0.6-0.2,0.7-0.2c3.4,1.2,7.5,1.8,11.9,1.9
	c9.8,0,20.9-2.5,29.3-6.9c9.6-5.1,15.2-12.2,16.2-20.7c0-0.1,0.1-2,0.1-2c0-6.6-3.7-10.4-5.6-12.5c0,0-1-1.2-1.2-1.4
	c-0.2-0.2-0.2-0.4-0.3-0.5c0.4-0.7,2.6-2.3,7.4-3.4c1.1-0.3,2.3-0.6,3.7-0.9c0.1,0,95.6-8.9,95.6-8.9s16.6-1.5,25.9-2.4
	c-5.5,2.3-56,24-115.7,49.5l-4.3-2.8l-8.7-5.6l-1.6,10.2l-0.8,4.7C246.2,239.4,146.1,282.3,139.9,284.9z M455.9,224.3
	c-0.6,0.2-1.2,0.4-1.8,0.7c-0.3,0.1-0.6,0.2-0.9,0.3c0,0,0,0-0.1,0c-1.8,0.7-3.7,1.4-5.6,2.1c-1,0.4-2,0.7-2.9,1.1
	c-2,0.8-4.1,1.5-6.1,2.3c-0.5,0.2-1,0.4-1.4,0.5c-9.9,3.7-19.5,7.3-27,10c-1.8,0.7-3.6,1.3-5.1,1.9c-2,0.7-3.7,1.4-5.1,1.9
	c-0.7,0.3-1.4,0.5-1.9,0.7c-0.3,0.1-0.6,0.2-0.9,0.3c-0.8,0.3-1.2,0.5-1.2,0.5s16.4,31.3,18.8,36.2c-11.9-4.7-57.1-20.8-57.1-20.8
	c0,0,0,0,0,0c0,0,0,0-0.1,0c-0.2,0.1-0.9,0.4-1.8,0.9c-0.2,0.1-0.3,0.2-0.5,0.3c0,0,0,0,0,0c-0.3,0.1-0.6,0.3-0.9,0.5
	c-0.1,0.1-0.3,0.1-0.4,0.2c-5.1,2.6-14.7,7.4-23.7,12c-1,0.5-2,1-2.9,1.5c0,0,0,0-0.1,0c-2.9,1.5-5.7,3-8.2,4.3c0,0,0,0,0,0
	c-0.5,0.3-1.1,0.6-1.6,0.9c0,0,0,0,0,0c-0.5,0.3-1,0.5-1.5,0.8c0,0,0,0-0.1,0c0,0,0,0-0.1,0c0,0,0,0-0.1,0c-0.5,0.3-1,0.5-1.4,0.8
	c0,0-0.1,0-0.1,0.1c0.1-0.1,0.1-0.3,0.2-0.5l0,0c0-0.1,0.1-0.1,0.1-0.2c0,0,0,0,0,0c0-0.1,0.1-0.2,0.1-0.2c0,0,0,0,0-0.1
	c0.1-0.1,0.1-0.2,0.2-0.4c0,0,0,0,0-0.1c0,0,0,0,0-0.1c0,0,0-0.1,0-0.1c1.6-3.3,4.6-9.2,7.5-15c0.1-0.1,0.1-0.2,0.2-0.3
	c0.1-0.3,0.3-0.6,0.4-0.8c0.1-0.2,0.2-0.3,0.2-0.5c0.1-0.3,0.3-0.6,0.4-0.9c0-0.1,0.1-0.2,0.1-0.3c0.2-0.3,0.3-0.7,0.5-1
	c0-0.1,0.1-0.1,0.1-0.2c0.1-0.3,0.3-0.6,0.4-0.9c0.6-1.2,1.2-2.3,1.7-3.4c0.1-0.2,0.1-0.3,0.2-0.4c0.1-0.2,0.2-0.4,0.3-0.7
	c0,0,0,0,0,0c1.5-3.1,2.6-5.1,2.6-5.1s-0.8-0.1-2.3-0.3c-0.1,0-0.2,0-0.3,0c-1.3-0.2-3.1-0.4-5.2-0.6c-0.6-0.1-1.1-0.1-1.7-0.2
	c-8.6-1.1-21.3-2.6-29.9-3.7c20.1-5.4,45-12.2,45-12.2s2.8-17.1,4.9-30.3h0c0.5-2.9,0.9-5.6,1.3-7.9c3.3,2.1,7.7,4.9,12.2,7.8
	c1,0.6,2,1.3,3,1.9c2.8,1.8,5.5,3.5,8,5.1c0.5,0.3,1.1,0.7,1.6,1c0.4,0.2,0.7,0.5,1.1,0.7c0.2,0.2,0.5,0.3,0.7,0.4
	c4.7,3,8,5.1,8,5.1l4.3-3.1c0,0,25.2-17.9,48.5-34.5c-10.5,16.2-29,44.7-29,44.7s0,0,0,0c0,0,0.5,0,1.4-0.1c0.2,0,0.3,0,0.5,0
	c0.2,0,0.5,0,0.7,0c0.8,0,1.9-0.1,3.1-0.2c0.5,0,0.9-0.1,1.4-0.1c0.3,0,0.7,0,1-0.1c0.4,0,0.7,0,1.1-0.1c0.6,0,1.2-0.1,1.9-0.1
	c0.2,0,0.3,0,0.5,0c2.2-0.1,4.5-0.3,7-0.4c0.2,0,0.5,0,0.7,0c2.4-0.1,4.9-0.3,7.5-0.4c0.5,0,1-0.1,1.5-0.1c1.5-0.1,3-0.2,4.5-0.3
	c1.8-0.1,3.6-0.2,5.4-0.3c1.8-0.1,3.7-0.2,5.5-0.3c0.2,0,0.5,0,0.7,0c0.1,0,0.2,0,0.3,0c0.6,0,1.2-0.1,1.8-0.1c0.7,0,1.3-0.1,2-0.1
	c1.9-0.1,3.8-0.2,5.5-0.3c0.7,0,1.5-0.1,2.2-0.1c0.2,0,0.3,0,0.5,0C456.1,224.3,456,224.3,455.9,224.3z"/>
<g>
	
		<rect x="488.1" y="432" transform="matrix(0.9529 -0.3032 0.3032 0.9529 -114.9135 170.0294)" class="st0" width="4" height="46.2"/>
</g>
<g>
	<g>
		<path class="st1" d="M160.2,323.2l0.9,2.2l-1.3,0.6l2,4.7l2.3-5.2c0.2-0.5,0.4-0.8,0.5-1.1c0.1-0.3,0.3-0.5,0.5-0.6l0,0l-1.6,0.7
			l-0.9-2.2l6-2.5l0.9,2.2l-1.2,0.5l-3.4,7.2l8.1,3.2l1.2-0.5l0.9,2.2l-6.5,2.7l-0.9-2.2l1.7-0.7l0,0c-0.3-0.1-0.6-0.1-0.8-0.2
			c-0.2-0.1-0.4-0.1-0.6-0.2l-5.9-2.3l2,4.9l1.3-0.6l0.9,2.2l-5.8,2.4l-0.9-2.2l1.3-0.6l-4.4-10.5l-1.3,0.6l-0.9-2.2L160.2,323.2z"
			/>
		<path class="st1" d="M176.9,316.7l0.8,2.2l-1.4,0.5l3.9,10.7l3.7-1.3l-0.8-2.8l2.6-0.9l1.5,5l-10.8,3.9l-0.8-2.2l1.4-0.5
			l-3.9-10.7l-1.4,0.5l-0.8-2.2L176.9,316.7z"/>
		<path class="st1" d="M201.9,317.2c0.4,1.2,0.5,2.4,0.5,3.5s-0.3,2.1-0.7,3s-1.1,1.6-1.9,2.3s-1.9,1.2-3.1,1.5
			c-1.2,0.4-2.4,0.5-3.4,0.4c-1.1-0.1-2-0.4-2.9-0.9s-1.6-1.2-2.2-2.1c-0.6-0.9-1.1-1.9-1.5-3.2c-0.3-1.1-0.5-2.2-0.4-3.3
			c0.1-1.1,0.3-2.1,0.8-3c0.4-0.9,1.1-1.7,1.9-2.4c0.8-0.7,1.8-1.2,3-1.6c1.2-0.4,2.3-0.5,3.4-0.4c1,0.1,2,0.4,2.9,0.8
			c0.9,0.5,1.6,1.2,2.3,2.1S201.5,316,201.9,317.2z M195.9,325c1.3-0.4,2.2-1.2,2.6-2.3s0.4-2.6-0.1-4.4c-0.5-1.7-1.3-2.9-2.3-3.7
			s-2.2-1-3.5-0.6c-1.3,0.4-2.1,1.2-2.6,2.3c-0.4,1.2-0.4,2.6,0.1,4.4c0.5,1.8,1.3,3,2.3,3.7C193.4,325.2,194.6,325.3,195.9,325z"/>
		<path class="st1" d="M215.8,305.6l1.2,4.4l-2.7,0.6l-0.6-2.1l-2.8,0.7l2.7,11.1l1.4-0.3l0.5,2.3l-6.1,1.5l-0.5-2.3l1.4-0.3
			l-2.7-11.1l-2.8,0.7l0.4,2.2l-2.7,0.6l-0.9-4.5L215.8,305.6z"/>
		<path class="st1" d="M229.7,303l1,4.6l-2.7,0.5l-0.6-2.3l-3.9,0.7l0.8,4.2l4-0.7l0.4,2.4l-4,0.7l0.8,4.6l3.9-0.7l-0.3-2.7l2.7-0.5
			l0.7,5l-11.4,2.1l-0.4-2.3l1.4-0.3l-2.1-11.2l-1.7,0.3l-0.4-2.3L229.7,303z"/>
		<path class="st1" d="M237.1,301.9l7.6,7.5c0.5,0.5,0.9,0.9,1.1,1.2c0.3,0.3,0.5,0.6,0.6,0.9l0,0l-1-8.3l-1.5,0.2l-0.3-2.3l5.8-0.7
			l0.3,2.3l-1.6,0.2l1.7,13.7l-2.5,0.3l-8.6-8.4c-0.5-0.5-0.8-0.8-0.9-1s-0.2-0.3-0.2-0.3l0,0l1,8.4l1.6-0.2l0.3,2.3l-5.6,0.7
			l-0.3-2.3l1.5-0.2l-1.4-11.3l-2,0.3l-0.3-2.3L237.1,301.9z"/>
		<path class="st1" d="M267.7,299.3c1.3,0,2.5,0.1,3.5,0.4c1.1,0.3,2,0.7,2.7,1.4c0.8,0.6,1.4,1.4,1.8,2.4c0.4,1,0.7,2.1,0.7,3.4
			c0,1.3-0.1,2.4-0.5,3.5s-0.9,1.9-1.6,2.7c-0.7,0.7-1.6,1.3-2.6,1.8s-2.1,0.7-3.4,0.7l-7.8,0.2l-0.1-2.3l1.7,0l-0.3-11.4l-1.7,0
			l-0.1-2.3L267.7,299.3z M267.6,313.1c0.8,0,1.5-0.2,2.2-0.4c0.7-0.3,1.2-0.7,1.7-1.2s0.8-1.1,1.1-1.9s0.4-1.6,0.3-2.6
			c-0.1-1.8-0.6-3.2-1.6-4.1c-1-0.9-2.3-1.3-4-1.2l-2,0.1l0.3,11.4L267.6,313.1z"/>
		<path class="st1" d="M285.3,299.4l-0.1,2.3l-1.4,0l-0.3,11.4l1.4,0l-0.1,2.3l-6.3-0.2l0.1-2.3l1.4,0l0.3-11.4l-1.4,0l0.1-2.3
			L285.3,299.4z"/>
		<path class="st1" d="M299.7,300.3l-0.2,4.7l-2.8-0.2l0-2.4l-3.9-0.3l-0.3,4.2l4,0.3l-0.2,2.5l-4-0.3l-0.3,4.7l4,0.3l0.4-2.7
			l2.8,0.2l-0.5,5l-11.5-0.8l0.2-2.3l1.4,0.1l0.8-11.4l-1.7-0.1l0.2-2.3L299.7,300.3z"/>
		<path class="st1" d="M317.3,302.5l-0.4,4.5l-2.7-0.4l0.1-2.2l-2.9-0.4l-1.5,11.3l1.4,0.2l-0.3,2.3l-6.2-0.8l0.3-2.3l1.4,0.2
			l1.5-11.3l-2.9-0.4l-0.4,2.2l-2.7-0.4l0.7-4.5L317.3,302.5z"/>
		<path class="st1" d="M326.3,304.1l-0.4,2.3l-1.4-0.3l-2.1,11.2l3.9,0.7l0.7-2.8l2.7,0.5l-1.2,5.1l-11.3-2.1l0.4-2.3l1.4,0.3
			l2.1-11.2l-1.4-0.3l0.4-2.3L326.3,304.1z"/>
		<path class="st1" d="M340.1,307.1l-0.5,2.3l-1.4-0.3l-2.6,11.1l1.4,0.3l-0.5,2.3l-6.1-1.4l0.5-2.3l1.4,0.3l2.6-11.1l-1.4-0.3
			l0.5-2.3L340.1,307.1z"/>
		<path class="st1" d="M349,309.4l-0.6,2.3l-1.4-0.4l-1.4,4.9l5-2.6c0.5-0.2,0.8-0.4,1.1-0.5s0.5-0.2,0.8-0.2l0,0l-1.6-0.5l0.6-2.3
			l6.3,1.8l-0.6,2.3l-1.2-0.3l-7.1,3.5l4.3,7.5l1.2,0.3l-0.6,2.3l-6.8-1.9l0.6-2.3l1.8,0.5l0,0c-0.2-0.2-0.4-0.4-0.5-0.6
			c-0.1-0.2-0.3-0.3-0.3-0.5l-3.2-5.5l-1.4,5.1l1.4,0.4l-0.6,2.3l-6-1.7l0.6-2.3l1.4,0.4l3.1-11l-1.4-0.4l0.6-2.3L349,309.4z"/>
		<path class="st1" d="M372.1,325.2c-0.4,1.2-1,2.3-1.6,3.1s-1.4,1.5-2.3,2c-0.9,0.5-1.8,0.7-2.9,0.7c-1.1,0-2.2-0.1-3.4-0.6
			s-2.2-1-3-1.6c-0.8-0.7-1.4-1.5-1.8-2.4c-0.4-0.9-0.6-1.9-0.6-3c0-1.1,0.2-2.2,0.6-3.5c0.4-1.1,0.9-2.1,1.6-2.9
			c0.7-0.8,1.5-1.5,2.4-2s1.9-0.8,2.9-0.9s2.2,0.1,3.3,0.5c1.2,0.4,2.2,0.9,3,1.6c0.8,0.7,1.4,1.5,1.8,2.4c0.4,0.9,0.6,1.9,0.6,3
			C372.8,322.8,372.5,324,372.1,325.2z M362.7,328c1.3,0.5,2.5,0.3,3.5-0.3c1-0.7,1.8-1.9,2.5-3.6c0.6-1.7,0.7-3.1,0.3-4.3
			s-1.2-2.1-2.5-2.5c-1.3-0.4-2.4-0.3-3.5,0.4c-1,0.7-1.9,1.9-2.5,3.6c-0.6,1.8-0.7,3.2-0.3,4.4C360.6,326.8,361.4,327.6,362.7,328z
			"/>
		<path class="st1" d="M381.3,320.3l2.9,10.3c0.2,0.7,0.3,1.2,0.4,1.6c0.1,0.4,0.1,0.7,0.1,1.1l0,0l3.2-7.7l-1.4-0.6l0.9-2.2
			l5.4,2.2l-0.9,2.2l-1.5-0.6l-5.3,12.7l-2.3-1l-3.3-11.6c-0.2-0.6-0.3-1.1-0.3-1.3c0-0.2,0-0.3,0-0.4l0,0L376,333l1.4,0.6l-0.9,2.2
			l-5.2-2.2l0.9-2.2l1.4,0.6l4.4-10.5l-1.9-0.8l0.9-2.2L381.3,320.3z"/>
	</g>
</g>
<g>
	<defs>
		<path id="SVGID_1_" d="M513.6,426.9c-10.3-7-21.8,0.4-29.8,4c-5,2.2-15.4,7.1-41.2,8c-30,1-57.5-6.5-57.5-6.5c-2.6,0-4.7-3-4.7-3
			c0,0-25-30.7-25-30.7c6.9-6.8,16.1-17.6,23.1-26.1c0.4-0.4,0.8-1,1.2-1.5c-1.6-0.8-3.2-1.6-4.9-2.5c-40.5-19.9-79.4-25-102.4-25
			c-22.9,0-61.9,5-102.4,25c-0.9,0.4-1.8,0.9-2.6,1.3c0.7,1.1,1.4,2,2,2.7c7,8.5,16.2,19.3,23.1,26.1c0,0-25,30.7-25,30.7
			c0,0-2,3-4.7,3c0,0-27.5,7.5-57.5,6.5c-25.7-0.9-36.2-5.8-41.2-8c-8.1-3.6-19.5-11-29.8-4c-7.3,5-10.1,12.5-10.1,18.7
			c0,13.8,3.9,21.6,18.5,29.7c8.2,4.5,31.3,10.8,32.1,11c25.7,5.4,51.2,1.8,51.4,1.7c11.5-1.8,24.3-5.4,24.4-5.4
			c10.5-3.3,15.7-8.3,16-8.5c5.1-5.2,6.3-10.9,6.6-13.2c0,0,0.1-1.1,0.1-1.1l0.2-2.4c0.4-3,1.1-5.4,1.1-5.4
			c2.7-7.6,3.4-9.5,3.5-10.1c0,0,0,0.1,0,0.1c1-2.3,2.7-6.4,3.4-7.8c0-0.1,19.1-27.8,19.1-27.8c20.7,18.4,46.2,32.8,73.3,42
			c27.1-9.2,52.6-23.7,73.3-42c0,0,19.1,27.7,19.1,27.8c0.7,1.4,2.5,5.5,3.4,7.8c0,0,0-0.1,0-0.1c0.1,0.6,0.8,2.4,3.5,10.1
			c0,0.1,0.7,2.4,1.1,5.4l0.2,2.4c0,0,0.1,1.1,0.1,1.1c0.3,2.2,1.5,8,6.6,13.2c0.3,0.2,5.5,5.2,16,8.5c0.2,0.1,12.9,3.6,24.4,5.4
			c0.2,0,25.7,3.7,51.4-1.7c0.8-0.1,24-6.5,32.1-11c14.6-8.1,18.5-15.9,18.5-29.7C523.7,439.4,521,431.9,513.6,426.9z M118.6,482
			c-1,0-2.1,0.1-3.2,0.1c1.1-0.1,2.2-0.2,3.4-0.3L118.6,482z M429.2,482l-0.1-0.1c1.1,0.1,2.3,0.2,3.4,0.3
			C431.3,482.1,430.2,482.1,429.2,482z"/>
	</defs>
	<clipPath id="SVGID_2_">
		<use xlink:href="#SVGID_1_"  style="overflow:visible;"/>
	</clipPath>
</g>
<g>
	<path class="st0" d="M300.7,407.2c1.3,5.7-1.8,11.2-7,12.5c-5.2,1.2-10.5-2.3-11.9-8c-1.3-5.7,1.8-11.2,7-12.5
		C294,398,299.3,401.6,300.7,407.2z"/>
</g>
<g>
	<path class="st0" d="M235,399.9c-3.3,4.8-2.9,11.3,0.9,14.5c3.8,3.2,9.6,2,13-2.8c3.3-4.8,2.9-11.3-0.9-14.5
		C244.1,393.9,238.3,395.2,235,399.9z"/>
</g>
<g>
	<path class="st0" d="M310.8,388c2.3,4.6,7,8.5,10.3,8.6c3.4,0.1,4.2-3.5,1.9-8.2c-2.3-4.6-7-8.5-10.3-8.6
		C309.3,379.7,308.4,383.3,310.8,388z"/>
</g>
<g>
	<path class="st0" d="M231.3,382.4c-4.8,3.1-9,8.3-9.3,11.7c-0.3,3.4,3.3,3.6,8.1,0.5c4.8-3.1,9-8.3,9.3-11.7
		C239.8,379.6,236.1,379.3,231.3,382.4z"/>
</g>
<g>
	<path class="st0" d="M276.9,367.1c-5.4-1.6-11.6,0.2-13.8,4.1c-2.2,3.9,0.4,8.4,5.9,10c5.4,1.6,11.6-0.2,13.8-4.1
		C285,373.2,282.3,368.7,276.9,367.1z"/>
</g>
<path class="st2" d="M287.7,361.2c-4.4-1-9-1.5-13.7-1.5c-0.2,0-0.4,0-0.6,0c-0.2,0-0.4,0-0.5,0c-16.9,0-30.7,5.8-41.3,13
	c-17.6,11.8-26.3,27.5-26.3,27.5c19.8,17.7,42.6,31.1,68.6,40.1c25.8-8.9,48.8-22.3,68.6-39.8C342.5,400.4,323.1,368.6,287.7,361.2z
	"/>
<g>
	<path class="st0" d="M300.7,407.2c1.3,5.7-1.8,11.2-7,12.5c-5.2,1.2-10.5-2.3-11.9-8c-1.3-5.7,1.8-11.2,7-12.5
		C294,398,299.3,401.6,300.7,407.2z"/>
</g>
<g>
	<path class="st0" d="M235,399.9c-3.3,4.8-2.9,11.3,0.9,14.5c3.8,3.2,9.6,2,13-2.8c3.3-4.8,2.9-11.3-0.9-14.5
		C244.1,393.9,238.3,395.2,235,399.9z"/>
</g>
<g>
	<path class="st0" d="M310.8,388c2.3,4.6,7,8.5,10.3,8.6c3.4,0.1,4.2-3.5,1.9-8.2c-2.3-4.6-7-8.5-10.3-8.6
		C309.3,379.7,308.4,383.3,310.8,388z"/>
</g>
<g>
	<path class="st0" d="M231.3,382.4c-4.8,3.1-9,8.3-9.3,11.7c-0.3,3.4,3.3,3.6,8.1,0.5c4.8-3.1,9-8.3,9.3-11.7
		C239.8,379.6,236.1,379.3,231.3,382.4z"/>
</g>
<g>
	<path class="st0" d="M276.9,367.1c-5.4-1.6-11.6,0.2-13.8,4.1c-2.2,3.9,0.4,8.4,5.9,10c5.4,1.6,11.6-0.2,13.8-4.1
		C285,373.2,282.3,368.7,276.9,367.1z"/>
</g>
<g>
	<g class="st3">
		<g>
			<path class="st1" d="M264,99.6c0,0-0.1,0.1-0.4,0.2C263.8,99.7,264,99.6,264,99.6z"/>
		</g>
	</g>
	<g>
		<path class="st0" d="M425,269.5"/>
	</g>
	<g>
		<g>
			<path class="st2" d="M330,159.5L330,159.5C329.9,159.5,329.9,159.6,330,159.5L330,159.5z"/>
		</g>
		<g>
			<path class="st4" d="M332.7,158.5l0,0.1C332.6,158.7,332.7,158.6,332.7,158.5L332.7,158.5z"/>
		</g>
		<g>
			<path class="st2" d="M332.7,158.5L332.7,158.5c0,0,0,0.1,0,0.1L332.7,158.5z"/>
		</g>
		<g>
			<g>
				<path class="st0" d="M331.6,159.1l0,0.1C331.5,159.2,331.6,159.1,331.6,159.1L331.6,159.1z"/>
			</g>
			<g>
				<path class="st2" d="M331.6,159.1L331.6,159.1c0,0,0,0.1,0,0.1L331.6,159.1z"/>
			</g>
		</g>
	</g>
	<g>
		<path class="st2" d="M320.9,189.9c7.1-3.8,11.2-8.8,11.9-14.5l0.1-1.2c0-3.2-1.6-4.8-3.4-6.7l-1.8-2l0,0c-1.3-1.8-2-3.7-2-5.6
			c0-1,0.2-2,0.6-2.9c1.8-4.4,7.4-7.7,16-9.2l0.1,0c0,0,97.1-9,123.9-11.5c-31.4,0-305,0-305.6,0c-0.7,0.7-27.1,27.1-31.2,31.2
			c6-0.6,49.2-4.6,49.2-4.6l-40.5,61.9c-17.5,27.2-31,33.1-37.5,34.2c-4.2,0.7-7.9-0.2-10.8-2.5c-3.7-3-5.6-6.5-5.6-10.6
			c0-0.4,0-0.7,0-1.1c1.3-16.5,32.5-37.2,43.4-44c-7.2,1.3-44.4,8-45,8.2c-0.4,0.4-1.9,1.7-1.9,1.7c-7.2,6.3-16.1,14.3-23.8,27.6
			c-2.5,4.4-5.9,13.3-5.9,23.3c0,4.2,0.6,8.7,2.2,13c3.7,10.2,12,17.6,24.6,22.2c36.4,13.2,62-28.2,62.2-28.6l31.3-47.4l39.8-60.8
			l11.9-1.1c0,0-37.8,57.8-41.2,62.9c5.8-1.7,53.6-15.5,54.4-15.7c0.4-0.6,7.4-11.3,9.8-15.1c-4.9,1.1-28.1,6.6-28.1,6.6l11-16.8
			c0,0,25.9-4.7,26.9-4.9c0.4-0.7,4.2-6.4,6.1-9.3c-4.3,0.5-25.8,3.2-25.8,3.2l8.5-13l38-3.5c0,0-28.5,43.5-31.7,48.5
			c4.8-1.4,20.4-5.9,21.1-6.1c0.5-0.8,28.9-44.1,28.9-44.1l11.2-1l0.6,2.4c-3.9,1.6-6.5,3.7-7.2,5.8c-0.2,0.8-0.4,1.5-0.4,2.2
			c0,2.3,1.6,3.9,4.1,6.2l2.1,2c1.9,1.9,2.8,3.6,2.8,5.2l-0.1,0.6c-0.3,1.8-1.8,3.3-4.6,4.7c-4.3,2.2-11.9,1.7-16-0.1
			c-1,1.4-8.5,12.6-9.9,14.6C291.3,197.5,308.6,196.5,320.9,189.9z"/>
	</g>
</g>
<path class="st1" d="M357.5,262.1c0,0,45.2,16.1,57.1,20.8c-2.4-4.8-18.8-36.2-18.8-36.2s34.2-12.7,60.5-22.5
	c-20.6,1.2-56.6,3.3-56.6,3.3s18.5-28.6,29-44.7c-23.3,16.6-48.5,34.5-48.5,34.5l-4.3,3.1c0,0-23.3-14.9-34.5-22.1
	c-2.1,12.7-6.2,38.1-6.2,38.1s-24.9,6.8-45,12.2c8.6,1.1,21.2,2.6,29.9,3.7c0.6,0.1,1.2,0.1,1.7,0.2c2.1,0.3,3.9,0.5,5.2,0.6
	c0.1,0,0.2,0,0.3,0c1.5,0.2,2.3,0.3,2.3,0.3s-13.2,26-15.6,31C326.3,277.6,357.5,262.1,357.5,262.1z"/>
<path class="st1" d="M252.5,309.6l-0.1-2.2l6.1-0.5l0.1,2.2L252.5,309.6z"/>
<path class="st5" d="M333.8,201.9l0.8-4.7l1.6-10.2l8.7,5.6l4.3,2.8c59.7-25.6,110.2-47.2,115.7-49.5c-9.3,0.9-25.9,2.4-25.9,2.4
	s-95.5,8.9-95.6,8.9c-1.4,0.3-2.6,0.5-3.7,0.9c-4.8,1.1-7,2.7-7.4,3.4c0,0.1,0.1,0.2,0.3,0.5c0.2,0.2,1.2,1.4,1.2,1.4
	c2,2,5.6,5.9,5.6,12.5c0,0-0.1,1.9-0.1,2c-1,8.5-6.6,15.7-16.2,20.7c-8.4,4.4-19.5,6.9-29.3,6.9c-4.5-0.1-8.6-0.7-11.9-1.9
	c0,0-0.3,0.1-0.7,0.2c-0.2-0.1-0.4-0.1-0.6-0.2c-0.7,0.2-105.5,30.1-106.4,30.4c-0.5,0.7-25.1,37.9-25.1,37.9
	c-0.1,0.2-0.2,0.3-0.4,0.5c0,0,0.1,0,0.1,0c-0.4,0.7-3.6,5.8-9.1,11.8c0.3-0.1,0.9-0.4,1.7-0.7c-0.5,0.5-0.9,1.1-1.4,1.6
	C146.1,282.3,246.2,239.4,333.8,201.9z"/>
<path class="st0" d="M513.6,426.9c-10.3-7-21.8,0.4-29.8,4c-5,2.2-15.4,7.1-41.2,8c-30,1-57.5-6.5-57.5-6.5c-2.6,0-4.7-3-4.7-3
	c0,0-25-30.7-25-30.7c6.9-6.8,16.1-17.6,23.1-26.1c0.4-0.4,0.8-1,1.2-1.5c-1.6-0.8-3.2-1.6-4.9-2.5c-40.5-19.9-79.4-25-102.4-25
	c-22.9,0-61.9,5-102.4,25c-0.9,0.4-1.8,0.9-2.6,1.3c0.7,1.1,1.4,2,2,2.7c7,8.5,16.2,19.3,23.1,26.1c0,0-25,30.7-25,30.7
	c0,0-2,3-4.7,3c0,0-27.5,7.5-57.5,6.5c-25.7-0.9-36.2-5.8-41.2-8c-8.1-3.6-19.5-11-29.8-4c-7.3,5-10.1,12.5-10.1,18.7
	c0,13.8,3.9,21.6,18.5,29.7c8.2,4.5,31.3,10.8,32.1,11c25.7,5.4,51.2,1.8,51.4,1.7c11.5-1.8,24.3-5.4,24.4-5.4
	c10.5-3.3,15.7-8.3,16-8.5c5.1-5.2,6.3-10.9,6.6-13.2c0,0,0.1-1.1,0.1-1.1l0.2-2.4c0.4-3,1.1-5.4,1.1-5.4c2.7-7.6,3.4-9.5,3.5-10.1
	c0,0,0,0.1,0,0.1c1-2.3,2.7-6.4,3.4-7.8c0-0.1,19.1-27.8,19.1-27.8c20.7,18.4,46.2,32.8,73.3,42c27.1-9.2,52.6-23.7,73.3-42
	c0,0,19.1,27.7,19.1,27.8c0.7,1.4,2.5,5.5,3.4,7.8c0,0,0-0.1,0-0.1c0.1,0.6,0.8,2.4,3.5,10.1c0,0.1,0.7,2.4,1.1,5.4l0.2,2.4
	c0,0,0.1,1.1,0.1,1.1c0.3,2.2,1.5,8,6.6,13.2c0.3,0.2,5.5,5.2,16,8.5c0.2,0.1,12.9,3.6,24.4,5.4c0.2,0,25.7,3.7,51.4-1.7
	c0.8-0.1,24-6.5,32.1-11c14.6-8.1,18.5-15.9,18.5-29.7C523.7,439.4,521,431.9,513.6,426.9z M39.8,443.7c0,0,0-0.1,0.1-0.1
	c3.8-7.7,10.6-5.3,17.9-1.8l1.6,0.8c0.1,0,0.1,0.1,0.2,0.1l-3,9.4C51,449.7,45.3,447,39.8,443.7z M55.7,454.8l-2.9,9
	c-5.6-3-11.2-7.7-13.2-12.8c-0.6-1.5-0.8-2.9-0.7-4.3C44.5,449.9,50.1,452.6,55.7,454.8z M82.1,442.6l-0.7,4.7
	c-7.6-1.9-13.4-4.2-17.3-5.9l1.3-4.1C69.9,439.2,75.3,441.2,82.1,442.6z M43.6,429.5c5.9-0.8,10.7,2.4,18.2,6l-1.3,4.1L59,439
	c-5.7-2.7-16.4-7.8-21.8,3.1c-1.9-1.2-3.9-2.5-5.8-3.8C33.9,433.8,38.3,430.2,43.6,429.5z M29,448.3c-0.1-2.4,0.3-4.8,1.1-7.1
	c2,1.4,4,2.7,6,3.9c-0.5,2.3-0.3,4.6,0.7,7c2.3,5.9,8.8,11.3,15.1,14.6l-1.9,5.9C34.2,466,29.5,456,29,448.3z M76.4,480.4
	c-7.5-1.6-15.1-3.7-22.7-6.4l1.8-5.7c0.1,0,0.2,0.1,0.2,0.1c4.3,1.7,12,4,21.5,5.9L76.4,480.4z M77.8,471.4
	c-9.2-1.9-16.7-4.1-20.9-5.7c-0.1-0.1-0.3-0.1-0.4-0.2l2.9-9.3c6.7,2.5,13.4,4.3,19.8,5.6L77.8,471.4z M60.3,453.4l2.9-9.1
	c4.1,1.8,10,4.1,17.8,6l-1.3,8.6C73.4,457.6,66.9,455.8,60.3,453.4z M104.6,483.7c-7.8-0.2-16-1-24.2-2.5l0.9-6.1
	c7.2,1.3,15.2,2.3,23.5,2.7L104.6,483.7z M104.8,474.9c-8.1-0.4-16-1.4-23.1-2.7l1.4-9.6c7.7,1.4,15.1,2.1,21.9,2.3L104.8,474.9z
	 M105.2,461.9c-6.7-0.2-14-0.9-21.6-2.3l1.3-8.5c5.9,1.2,12.7,2.2,20.5,2.5L105.2,461.9z M105.5,450.6c-7.6-0.3-14.3-1.2-20.1-2.4
	l0.7-4.9c1.8,0.3,3.7,0.6,5.8,0.8c4.8,0.5,9.4,0.8,13.8,1L105.5,450.6z M109.6,445.2c6.9,0.1,13.3-0.1,19-0.5l0.1,5.2
	c-5.8,0.6-12.1,0.9-18.4,0.9c-0.3,0-0.6,0-0.9,0L109.6,445.2z M109.4,453.7c0.3,0,0.6,0,1,0c0.3,0,0.6,0,0.9,0
	c6.1,0,12.1-0.4,17.6-0.9l0.2,8.2c-4.2,0.4-8.7,0.8-13.4,0.9c-2.1,0.1-4.2,0.1-6.5,0.1L109.4,453.7z M117.1,483.5
	c-2.8,0.2-5.7,0.3-8.5,0.3l0.2-5.7c1.1,0,2.2,0,3.2,0c3.6,0,7.2-0.2,10.7-0.5L117.1,483.5z M125.8,474.3c-5.6,0.7-11.3,0.9-17,0.8
	l0.3-10c2.3,0,4.6,0,6.7-0.1c4.7-0.1,9.2-0.5,13.3-0.9l0.2,6.4L125.8,474.3z M132.6,444.3c13.8-1.3,22.9-3.7,25.7-4.6l-6.4,6.8
	c-3.8,0.8-10.8,2-19.2,3L132.6,444.3z M133.2,466.4l-0.1-2.8c1.1-0.1,2.1-0.3,3.1-0.4L133.2,466.4z M139.5,459.6
	c-2,0.3-4.2,0.7-6.5,1l-0.2-8.1c6.2-0.7,11.6-1.6,15.6-2.3L139.5,459.6z M149.4,476.9l7.1-9l3.3,2.6
	C157.3,472.8,154,475.1,149.4,476.9z M162.6,467.5l-3.6-2.8l8.2-10.5C167.3,456.2,166.9,461.9,162.6,467.5z M273.9,440.2
	c-25.9-9-48.8-22.4-68.6-40.1c0,0,8.6-15.6,26.3-27.5c10.6-7.2,24.4-13,41.3-13c0.2,0,0.4,0,0.5,0c0.2,0,0.4,0,0.6,0
	c4.8,0,9.3,0.6,13.7,1.5c35.3,7.4,54.7,39.2,54.7,39.2C322.7,417.9,299.7,431.3,273.9,440.2z M419.2,444.6c5.7,0.4,12,0.7,19,0.5
	l0.1,5.6c-0.3,0-0.6,0-0.9,0c-6.3,0-12.6-0.3-18.4-0.9L419.2,444.6z M419,452.9c5.8,0.5,12.1,0.9,18.5,0.9c0.3,0,0.6,0,1,0l0.2,8.3
	c-2.2,0-4.4,0-6.5-0.1c-4.8-0.1-9.3-0.5-13.4-0.9L419,452.9z M380.3,453.9C380.3,453.9,380.3,453.9,380.3,453.9l8.5,10.8l-3.6,2.8
	C380.4,461.5,380.2,455.4,380.3,453.9z M387.9,470.5l3.4-2.6l7.1,9C393.8,475.1,390.4,472.9,387.9,470.5z M414.6,466.4l-3-3.2
	c1,0.1,2,0.3,3.1,0.4L414.6,466.4z M414.8,460.6c-2.3-0.3-4.5-0.6-6.5-1l-8.9-9.4c4,0.7,9.4,1.6,15.6,2.3L414.8,460.6z M415.1,449.5
	c-8.4-1-15.4-2.2-19.2-3l-6.4-6.8c2.8,0.8,12,3.2,25.7,4.6L415.1,449.5z M418.5,470.5l0.2-6.4c4.2,0.4,8.6,0.8,13.3,0.9
	c2.2,0.1,4.4,0.1,6.7,0.1l0.3,10c-5.7,0.1-11.4-0.1-17-0.7L418.5,470.5z M430.7,483.5l-5.5-5.9c3.5,0.3,7.1,0.5,10.7,0.5
	c1.1,0,2.2,0,3.2,0l0.2,5.7C436.3,483.7,433.5,483.6,430.7,483.5z M504.2,429.5c5.3,0.7,9.7,4.3,12.2,8.8c-1.9,1.3-3.8,2.6-5.8,3.8
	c-5.4-10.9-16.1-5.9-21.8-3.1l-1.6,0.8c-3.5,1.7-10.4,5-20.7,7.5l-0.7-4.7C487.4,438.1,494.2,428.3,504.2,429.5z M442.2,445.1
	c4.4-0.2,9-0.5,13.8-1c2-0.2,4-0.5,5.8-0.8l0.7,4.9c-5.8,1.2-12.5,2.1-20.1,2.4L442.2,445.1z M442.4,453.6
	c7.8-0.3,14.6-1.3,20.5-2.5l1.3,8.5c-7.6,1.4-14.9,2-21.6,2.3L442.4,453.6z M442.7,464.9c6.8-0.2,14.2-0.9,21.9-2.3l1.4,9.6
	c-7.1,1.3-15,2.3-23.1,2.7L442.7,464.9z M443.2,483.7l-0.2-5.8c8.2-0.4,16.3-1.4,23.5-2.7l0.9,6.1
	C459.2,482.7,451.1,483.5,443.2,483.7z M466.8,450.3c10.7-2.6,17.9-6,21.6-7.8l1.6-0.8c7.3-3.5,14.1-5.9,17.9,1.8c0,0,0,0.1,0.1,0.1
	c-13.3,7.8-27,12.5-39.9,15.2L466.8,450.3z M468.6,461.9c13-2.7,26.8-7.4,40.3-15.1c0.1,1.4-0.1,2.8-0.7,4.3
	c-2.5,6.4-10.7,12.1-17.3,14.7c-4.2,1.7-11.7,3.9-20.9,5.7L468.6,461.9z M495.3,473.6c-8,2.9-16,5.2-23.9,6.8l-0.9-6
	c9.5-1.9,17.2-4.2,21.5-5.9c7.2-2.9,16.2-9.2,19-16.4c0.9-2.4,1.1-4.7,0.7-7c2-1.2,4-2.6,6-3.9c0.9,2.3,1.3,4.8,1.1,7.1
	C518.3,456.4,513.1,467,495.3,473.6z"/>
</svg>
